<svg width="56" height="61" viewBox="0 0 56 61" fill="none" xmlns="http://www.w3.org/2000/svg">
<path d="M43.7435 0.628939C46.9724 0.289561 49.8472 2.62698 50.3238 5.68657L55.5181 55.1078L48.825 50.5339L45.1308 47.8212L41.1061 44.997L43.1723 49.8953L10.9447 53.2826C7.72429 53.6211 4.85881 51.455 4.51762 48.2089L0.598754 10.9233C0.275485 7.84762 2.61181 4.9625 5.84078 4.62312L43.7273 0.641082L43.7435 0.628939ZM31.0678 15.1556L30.9955 15.1632L30.5769 15.6703C35.4855 16.5508 38.0159 18.4612 38.0159 18.4612C34.7875 17.2492 31.9338 16.7691 29.1386 16.746C27.1158 16.6504 25.1317 17.0226 23.4608 17.3428L22.9941 17.3918C21.9178 17.505 19.6713 18.2129 16.7229 19.7642C15.7042 20.3432 15.118 20.713 15.118 20.713C15.118 20.713 17.1713 18.1658 22.119 16.4043L21.7735 16.1324C21.7735 16.1324 17.9188 16.3826 14.098 19.8869C14.098 19.8869 10.7135 27.5432 11.6485 36.4397C11.6485 36.4397 14.3637 40.1903 20.6774 39.6799C20.6774 39.6799 21.4723 38.3636 22.284 37.1901C18.637 36.4852 17.0297 34.4777 17.0297 34.4777C17.0297 34.4777 17.3592 34.598 17.8493 34.8547L17.9836 34.8406C18.056 34.833 18.0959 34.8653 18.1342 34.8979L18.136 34.9151C18.1759 34.9475 18.2148 34.9695 18.2768 34.963C19.0727 35.1962 19.8573 35.422 20.5093 35.6616C21.6337 36.0066 23.0551 36.3273 24.7733 36.4566C26.9417 36.5456 29.404 36.433 32.1457 35.6817C33.4853 35.2241 34.8353 34.7827 36.1512 34.0176C36.9917 33.4661 38.0459 32.8939 39.1746 31.9865C39.1746 31.9865 38.0283 34.2834 34.4544 35.7473C35.3209 36.7357 36.5159 37.8515 36.5159 37.8515C42.8055 37.046 44.8348 32.7967 44.9871 32.9531C44.0529 24.0652 39.1221 17.2742 39.1221 17.2742C35.0799 14.8784 31.5521 15.1412 30.9338 15.2062L31.0548 15.1482L31.0678 15.1556ZM32.5189 25.2514C34.1343 25.0816 35.5787 26.3175 35.7559 28.0034C35.9351 29.7083 34.7704 31.2167 33.1637 31.3856C31.5483 31.5553 30.1039 30.3195 29.9267 28.6335C29.7475 26.9286 30.9122 25.4203 32.5189 25.2514ZM22.0881 26.3477C23.6931 26.179 25.1393 27.4147 25.3165 29.1007C25.4957 30.8056 24.3309 32.3139 22.7242 32.4828C21.1088 32.6526 19.6558 31.4176 19.4786 29.7317C19.2994 28.0268 20.4641 26.5184 22.0795 26.3486L22.0881 26.3477Z" fill="#405DE6"/>
</svg>
