<svg width="55" height="55" viewBox="0 0 55 55" fill="none" xmlns="http://www.w3.org/2000/svg">
<path fill-rule="evenodd" clip-rule="evenodd" d="M24.863 3.13386C11.1262 4.57766 1.16941 16.8733 2.61321 30.6101C3.76956 41.612 11.8633 50.1565 22.0926 52.4122C23.3586 52.499 23.7464 51.7042 23.6778 51.0515C23.6157 50.461 23.3789 48.5063 23.16 46.424C17.034 48.2305 15.137 45.7276 14.4928 44.3813C14.1379 43.6959 12.6939 41.6167 11.5752 41.1373C10.656 40.7625 9.29197 39.7433 11.371 39.4933C13.3257 39.2565 14.917 40.9431 15.4615 41.64C18.0945 45.1654 21.5575 43.733 22.9185 42.9301C22.9662 41.2912 23.5045 40.1348 24.154 39.4381C18.5566 39.398 12.5506 37.8611 11.551 28.351C11.2668 25.6471 11.9951 23.3082 13.3972 21.4012C13.0832 20.8057 11.9452 18.3487 12.9533 14.7863C12.9533 14.7863 14.967 13.9148 20.0585 16.6162C21.9888 15.8477 24.0727 15.3459 26.1861 15.1237C28.2994 14.9016 30.4422 14.9592 32.49 15.3096C36.9054 11.5776 39.0595 12.0425 39.0595 12.0425C40.7863 15.3174 40.184 17.9573 40.0007 18.6051C41.7686 20.1789 42.964 22.2842 43.2514 25.0191C44.2542 34.5603 38.6646 37.2845 33.1979 38.4875C34.1809 39.1698 35.1146 40.5799 35.3596 42.9108C35.7091 46.2362 35.959 48.9123 36.0472 49.7514C36.1158 50.4041 36.6636 51.1321 37.8806 50.7528C42.6412 48.5676 46.5966 44.9446 49.1903 40.3938C51.784 35.8429 52.8853 30.5933 52.3393 25.3837C50.8955 11.6469 38.5999 1.69006 24.863 3.13386Z" fill="black"/>
</svg>
