<svg width="55" height="55" viewBox="0 0 55 55" fill="none" xmlns="http://www.w3.org/2000/svg">
<path d="M26.5981 19.1859C22.0328 19.6657 18.6987 23.7831 19.1785 28.3485C19.6584 32.914 23.7756 36.2482 28.341 35.7683C32.9064 35.2885 36.2405 31.1711 35.7606 26.6057C35.2808 22.0402 31.1635 18.7061 26.5981 19.1859ZM52.3365 24.8635C51.9757 21.4301 51.6492 18.0245 51.0961 14.6175C50.4849 10.657 49.2055 7.21953 45.9887 4.61453C42.7649 2.00397 39.1435 1.47274 35.1425 1.69831C31.6889 1.86635 28.2899 2.25504 24.8628 2.61525C21.4294 2.97611 18.0239 3.3026 14.617 3.85563C10.6566 4.46683 7.21916 5.74627 4.61423 8.96316C2.00372 12.1869 1.47252 15.8084 1.6981 19.8095C1.86615 23.2632 2.25485 26.6622 2.61506 30.0894C2.97527 33.5166 3.30243 36.9284 3.85546 40.3354C4.46667 44.2959 5.74609 47.7334 8.96293 50.3384C12.1866 52.9489 15.8081 53.4802 19.8091 53.2546C23.2627 53.0865 26.6617 52.6979 30.0888 52.3376C33.5222 51.9768 36.9277 51.6503 40.3346 51.0973C44.295 50.4861 47.7324 49.2066 50.3374 45.9897C52.9479 42.766 53.4791 39.1445 53.2535 35.1434C53.0923 31.6953 52.6974 28.2969 52.3365 24.8635ZM28.8104 40.2342C21.7509 40.9762 15.4547 35.8776 14.7127 28.8179C13.9707 21.7582 19.0692 15.4619 26.1287 14.72C33.1883 13.978 39.4845 19.0766 40.2265 26.1363C40.9685 33.196 35.8699 39.4923 28.8104 40.2342ZM39.6664 15.7811C38.0181 15.9544 36.5471 14.7632 36.3739 13.1149C36.2007 11.4666 37.3918 9.99563 39.0401 9.8224C40.6883 9.64916 42.1593 10.8403 42.3325 12.4886C42.3741 12.88 42.3382 13.2757 42.2266 13.6531C42.1151 14.0305 41.9302 14.3822 41.6825 14.688C41.4349 14.9939 41.1293 15.2479 40.7833 15.4354C40.4374 15.623 40.0578 15.7405 39.6664 15.7811Z" fill="url(#paint0_linear_318_1130)"/>
<defs>
<linearGradient id="paint0_linear_318_1130" x1="24.863" y1="2.61335" x2="30.0895" y2="52.3394" gradientUnits="userSpaceOnUse">
<stop stop-color="#0A66C2"/>
<stop offset="0.494792" stop-color="#E1306C"/>
<stop offset="1" stop-color="#FFDC80"/>
</linearGradient>
</defs>
</svg>
