<svg width="56" height="56" viewBox="0 0 56 56" fill="none" xmlns="http://www.w3.org/2000/svg">
<g clip-path="url(#clip0_318_1115)">
<path d="M46.4348 3.177L4.80978 7.55197C3.80875 7.65718 3.34973 8.8218 3.45494 9.82284L7.56518 51.177C7.6704 52.178 8.56415 52.9018 9.56518 52.7966L51.1902 48.4216C52.1913 48.3164 52.915 47.4226 52.8098 46.4216L48.4348 4.79657C48.3296 3.79554 47.4359 3.07179 46.4348 3.177ZM20.4729 44.8857L13.7597 45.5913L11.4902 23.9983L18.2034 23.2927L20.4729 44.8857ZM14.5393 20.693C13.7697 20.7739 12.9935 20.6247 12.3086 20.2644C11.6238 19.9041 11.0612 19.3488 10.692 18.6688C10.3228 17.9888 10.1635 17.2145 10.2343 16.4439C10.3051 15.6734 10.6028 14.9411 11.0898 14.3397C11.5768 13.7384 12.2311 13.2949 12.9701 13.0654C13.7091 12.836 14.4996 12.8308 15.2416 13.0506C15.9835 13.2704 16.6436 13.7052 17.1384 14.3002C17.6332 14.8951 17.9405 15.6234 18.0214 16.393C18.2416 18.5427 16.6828 20.4677 14.5393 20.693ZM45.6063 42.244L38.8987 42.949L37.7949 32.4466C37.5316 29.9412 37.1481 26.7279 33.7038 27.09C30.2144 27.4567 29.9636 30.2392 30.2596 33.0556L31.3825 43.739L24.6806 44.4434L22.4111 22.8504L28.8472 22.174L29.1574 25.1262L29.2479 25.1167C29.9632 23.3261 31.9635 21.3032 35.2324 20.9596C42.0304 20.2451 43.7505 24.5873 44.3615 30.4013L45.6063 42.244Z" fill="#0A66C2"/>
</g>
<defs>
<clipPath id="clip0_318_1115">
<rect width="50" height="50" fill="white" transform="translate(0.523926 5.73682) rotate(-6)"/>
</clipPath>
</defs>
</svg>
