<svg width="54" height="46" viewBox="0 0 54 46" fill="none" xmlns="http://www.w3.org/2000/svg">
<path d="M19.8825 43.9643C38.648 41.992 47.2774 25.3791 45.8616 11.9083C45.8152 11.4671 45.76 11.0288 45.6943 10.5937C47.5351 8.94534 49.0777 6.96768 50.2285 4.77999C48.4858 5.78402 46.5761 6.53732 44.5384 7.00067C46.5121 5.51722 47.9193 3.35084 48.4321 0.890694C46.5836 2.26553 44.4899 3.34362 42.2138 4.04609C40.1439 2.2603 37.3632 1.29954 34.4284 1.608C28.7944 2.20015 24.7055 7.24569 25.2969 12.8731C25.381 13.6731 25.5523 14.4418 25.8058 15.1698C17.2818 15.6346 9.33674 12.3684 3.6565 6.72912C2.93867 8.32771 2.61738 10.1308 2.81364 11.998C3.18537 15.5348 5.31466 18.4678 8.24554 20.0065C6.5663 20.1307 4.94569 19.8368 3.49108 19.2171C3.49407 19.26 3.49845 19.3017 3.50325 19.3475C4.02215 24.2844 7.97205 28.0368 12.7384 28.4802C11.9057 28.8038 11.0169 29.0239 10.0859 29.1217C9.42955 29.1907 8.78328 29.1934 8.14917 29.1394C9.87373 33.0534 13.9498 35.605 18.4238 35.2181C15.2194 38.3198 10.9919 40.411 6.21127 40.9134C5.3888 40.9999 4.57137 41.0385 3.76289 41.0281C8.58201 43.4454 14.1207 44.5692 19.883 43.9636" fill="#1C9CEA"/>
</svg>
