<svg width="40" height="33" viewBox="0 0 40 33" fill="none" xmlns="http://www.w3.org/2000/svg">
<path d="M12.5795 32.483C27.6746 32.483 35.9295 19.9872 35.9295 9.15121C35.9295 8.79628 35.9223 8.44296 35.9064 8.09124C37.5088 6.93374 38.9015 5.48928 40 3.84494C38.5296 4.49804 36.9472 4.93769 35.2872 5.13593C36.9815 4.12072 38.2823 2.51479 38.896 0.600331C37.3104 1.5396 35.5544 2.22227 33.6848 2.59083C32.1872 0.99693 30.0552 0 27.6944 0C23.1624 0 19.4873 3.67239 19.4873 8.19914C19.4873 8.84263 19.5593 9.46855 19.7001 10.0689C12.8794 9.726 6.83125 6.46293 2.78352 1.50123C2.07873 2.71307 1.67233 4.12077 1.67233 5.6228C1.67233 8.46779 3.12117 10.9794 5.32436 12.4487C3.97794 12.4071 2.71312 12.0378 1.60764 11.4231C1.60643 11.4575 1.60642 11.491 1.60642 11.5278C1.60642 15.4991 4.43525 18.8149 8.19036 19.5662C7.50076 19.7541 6.77521 19.8548 6.02636 19.8548C5.49837 19.8548 4.98396 19.8029 4.48397 19.7069C5.52876 22.9652 8.5584 25.3362 12.1503 25.4024C9.34148 27.6023 5.80315 28.9125 1.95756 28.9125C1.29596 28.9125 0.642367 28.8749 0 28.799C3.63203 31.1252 7.94473 32.4825 12.58 32.4825" fill="black"/>
</svg>
