<svg width="54" height="41" viewBox="0 0 54 41" fill="none" xmlns="http://www.w3.org/2000/svg">
<g clip-path="url(#clip0_318_1120)">
<path d="M25.0231 2.69565L25.2997 2.66657C27.8556 2.40737 40.8105 1.14003 44.3995 1.71182C45.4848 1.88738 46.505 2.3447 47.3581 3.03807C48.2113 3.73144 48.8676 4.63659 49.2613 5.66304C49.6994 6.81112 50.0844 8.35128 50.4031 9.9487L50.4681 10.2687L50.6214 11.0696L50.6803 11.3902C51.1809 14.2098 51.4854 16.8677 51.5496 17.4485L51.5741 17.6816C51.6343 18.2849 51.905 21.1287 51.9922 24.1111L52.0016 24.44L52.0076 24.7662C52.0391 26.5604 51.9946 28.3499 51.7862 29.6854C51.6153 30.7716 51.1619 31.7938 50.4715 32.6496C49.781 33.5053 48.8777 34.1645 47.8521 34.5611C44.3487 35.9097 30.6523 37.4184 28.7536 37.6211L28.3123 37.6675C27.3519 37.7684 23.3778 38.1673 19.198 38.462L18.6676 38.4989L18.3959 38.5149L17.8622 38.549L17.3284 38.5831C13.8624 38.7934 10.5514 38.8932 8.99462 38.642C7.90941 38.4676 6.88908 38.011 6.03587 37.3181C5.18265 36.6252 4.5265 35.7202 4.13315 34.6939C3.65193 33.4341 3.23605 31.6898 2.89379 29.9283L2.83463 29.6045L2.77579 29.2839C2.40104 27.194 2.09423 25.0925 1.85582 22.9827L1.81564 22.6004C1.75162 21.9315 1.53377 19.6196 1.43374 17.0533L1.42185 16.7309L1.41418 16.5683L1.40507 16.2424L1.38852 15.4271L1.38562 15.1006C1.36527 13.4719 1.4213 11.8822 1.61141 10.6712C1.78224 9.58502 2.23562 8.56279 2.92609 7.70704C3.61657 6.85129 4.51988 6.1921 5.54546 5.79554C7.01662 5.2324 10.2757 4.63846 13.7094 4.12045L14.2354 4.04316L14.7681 3.96833L15.0344 3.93091L15.5636 3.85329C18.5116 3.44721 21.4652 3.08334 24.4236 2.7618L25.0234 2.69876L25.0231 2.69565ZM20.9403 13.2119L22.5142 28.1866L34.6479 19.3444L20.9403 13.2119Z" fill="#EA1414"/>
</g>
<defs>
<clipPath id="clip0_318_1120">
<rect width="50" height="35.1241" fill="white" transform="translate(0 5.32568) rotate(-6)"/>
</clipPath>
</defs>
</svg>
