<svg width="40" height="29" viewBox="0 0 40 29" fill="none" xmlns="http://www.w3.org/2000/svg">
<path d="M20.1288 0H20.3513C22.4064 0.00750047 32.8196 0.0825056 35.6272 0.837553C36.476 1.06799 37.2495 1.51715 37.8703 2.14015C38.4911 2.76316 38.9375 3.53818 39.1649 4.38777C39.4175 5.33783 39.595 6.59541 39.715 7.89299L39.74 8.15301L39.795 8.80305L39.815 9.06307C39.9775 11.3482 39.9975 13.4883 40 13.9559V14.1434C39.9975 14.6284 39.975 16.9136 39.795 19.2937L39.775 19.5562L39.7525 19.8162C39.6275 21.2463 39.4425 22.6664 39.1649 23.7115C38.9382 24.5614 38.492 25.3368 37.8711 25.9599C37.2502 26.583 36.4764 27.032 35.6272 27.2617C32.727 28.0418 21.7039 28.0968 20.1763 28.0993H19.8212C19.0487 28.0993 15.8535 28.0843 12.5033 27.9693L12.0783 27.9543L11.8607 27.9442L11.4332 27.9267L11.0057 27.9092C8.23051 27.7867 5.58785 27.5892 4.37027 27.2592C3.52144 27.0297 2.74783 26.5811 2.12694 25.9585C1.50605 25.3358 1.05968 24.561 0.832552 23.7115C0.555035 22.6689 0.370023 21.2463 0.245015 19.8162L0.225014 19.5537L0.205013 19.2937C0.0816241 17.5996 0.0132505 15.9019 0 14.2034L0 13.8959C0.00500031 13.3583 0.0250016 11.5007 0.16001 9.45059L0.177511 9.19308L0.185012 9.06307L0.205013 8.80305L0.260016 8.15301L0.285018 7.89299C0.405025 6.59541 0.582536 5.33533 0.835052 4.38777C1.0618 3.53784 1.508 2.76245 2.12892 2.13934C2.74983 1.51623 3.52364 1.0673 4.37277 0.837553C5.59035 0.512532 8.23301 0.312519 11.0082 0.187512L11.4332 0.170011L11.8632 0.15501L12.0783 0.14751L12.5058 0.130009C14.8852 0.0534402 17.2656 0.0109328 19.6462 0.00250027H20.1288V0ZM16.001 8.0255V20.0713L26.3942 14.0509L16.001 8.0255Z" fill="black"/>
</svg>
