<svg width="85" height="108" viewBox="0 0 85 108" fill="none" xmlns="http://www.w3.org/2000/svg">
<path d="M80.5226 62.1202L80.5213 62.1183C79.6219 60.4138 78.5031 58.8137 77.189 57.3511C76.5376 56.6211 75.8346 55.9302 75.0844 55.2829C74.7139 54.9556 74.3366 54.6467 73.9562 54.3424L73.7821 54.2034H73.7679C73.4322 53.9477 73.0878 53.6996 72.7485 53.4598L72.5837 53.3441H72.5694C70.6997 52.0772 68.6491 51.0467 66.4761 50.2804C66.44 50.2669 66.404 50.2556 66.3667 50.2467C66.0739 50.1391 65.783 50.0462 65.5077 49.958L65.4915 49.9528L65.4853 49.9509C65.144 49.8454 64.8034 49.748 64.4622 49.6585L32.7545 40.685L32.67 40.6611H32.5822H32.5733H32.4733L22.1148 37.73L22.1323 37.6823L21.4684 37.4944L14.5401 35.5331V24.5958H57.1149C59.1396 24.5956 61.1319 25.0438 62.9163 25.8982L63.1898 25.3202L62.9163 25.8982C64.7002 26.7526 66.22 27.9855 67.3469 29.4841C68.4738 30.9823 69.1744 32.7012 69.395 34.4905C69.6151 36.2796 69.349 38.0918 68.618 39.7713L68.5646 39.8941V40.0281V40.0362V40.5209L69.0277 40.6523L80.7892 43.9861L80.8738 44.0102H80.9614H80.9707H81.404L81.5625 43.6043C82.8436 40.3291 83.3091 36.8357 82.9268 33.3751C82.5452 29.9146 81.3238 26.5773 79.3552 23.6009L79.1663 23.3153H79.1601C77.1076 20.3079 74.3366 17.7618 71.0546 15.8633C67.8361 14.0014 64.2086 12.8095 60.432 12.3676V1.78815V1.14795H59.7957H47.4898H46.8534V1.78815V12.176H35.0469V1.78815V1.14795H34.4105H22.1046H21.4682V1.78815V12.176H1.59782H0.961426V12.8162V44.2055V44.6903L1.42536 44.8217L13.7313 48.3068H13.7313L40.1273 55.7781L40.1274 55.7782L60.747 61.6131L60.7532 61.6171L60.85 61.6436C61.1178 61.7171 61.3773 61.7953 61.6258 61.8851C61.635 61.8893 61.6445 61.8935 61.6544 61.8975C61.6772 61.9067 61.701 61.9149 61.7257 61.9216L61.7666 61.9367H61.7808L61.966 61.9888L61.9618 62.0003L62.5129 62.2416C65.0365 63.3467 67.0573 65.1883 68.2569 67.4507C69.4553 69.7106 69.7686 72.2657 69.1526 74.7017L69.7214 74.8477L69.1526 74.7017C68.5354 77.1395 67.0193 79.3301 64.8339 80.9064C62.6484 82.4839 59.9266 83.3485 57.1149 83.3492H14.5401V59.3949V58.9096L14.0758 58.7785L1.76991 55.3014L0.961426 55.0729V55.9177V95.1286V95.7685H1.59782H21.4682V106.141V106.781H22.1046H34.4105H35.0469V106.141V95.7685H46.8534V106.141V106.781H47.4898H59.7957H60.432V106.141V95.5688C64.3298 95.1093 68.068 93.852 71.3592 91.8849C74.8115 89.821 77.6757 87.0355 79.7058 83.7556C81.7365 80.475 82.8734 76.7974 83.0157 73.0286C83.1587 69.2617 82.3021 65.5204 80.5226 62.1202Z" fill="white" stroke="white" stroke-width="2"/>
</svg>
